/* XPM */
static char * est_wall_xpm[] = {
"17 16 5 1",
" 	c #8B9150",
".	c #557D55",
"+	c #353540",
"@	c #735B42",
"#	c #604B3D",
"      .+...      ",
"      .+.        ",
"     ..+.        ",
"     ..+...      ",
"     ..+++.      ",
"     ..+@+.      ",
"     ..+#+.      ",
"     ..+++.      ",
"      .+...      ",
"      .+.        ",
"     ..+.        ",
"     ..+...      ",
"     ..+++.      ",
"     ..+@+.      ",
"     ..+#+.      ",
"     ..+++.      "};
