/* XPM */
static char *b1dc95d1b3f04d30abf955e5e29bdae1s6X8LXtkh7NHWLCq[] = {
/* columns rows colors chars-per-pixel */
"128 80 7 1 ",
"  c None",
". c #353540",
"X c #735B42",
"o c #557D55",
"O c #7E674C",
"+ c #8B9150",
"@ c #BDA351",
/* pixels */
"                                                                                                                                ",
"                                                                                                                                ",
"                                                                                                                                ",
"                                                                                                                                ",
"                                                                                                                                ",
"                                                                                                                                ",
"                                                                                                                                ",
"                                                                                                                                ",
"                                                                                                                                ",
"                                                                                                                                ",
"                                                                                                                                ",
"                                                                                                                                ",
"                                                                                                                                ",
"                                                                                                                                ",
"                                                                                                                                ",
"                                                                                                                                ",
"                OOOOOOOOOOOOOOOOOOOOOOOOOOOOOOOOOOOOOOOOOOOOOOOO++++++++++++++++++++++++++++++++OOOOOOOOOOOOOOOO                ",
"                OOOOOOOOOOOOOOOOOOOOOOOOOOOOOOOOOOOOOOOOOOOOOOOO++++++++++++++++++++++++++++++++OOOOOOOOOOOOOOOO                ",
"                OOOOOOOOOOOOOOOOOOOOOOOOOOOOOOOOOOOOOOOOOOOOOOOO++++++++++++++++++++++++++++++++OOOOOOOOOOOOOOOO                ",
"                OOOOOOOOOOOOOOOOOOOOOOOOOOOOOOOOOOOOOOOOOOOOOOOO+++oooooooo++oooooo++oooooooo+++OOOOOOOOOOOOOOOO                ",
"                OOOOOOOOOOOOOOOOOOOOOOOOOOOOOOOOOOOOOOOOOOOOOOOO+++o......o++o....o++o......@+++OOOOOOXOXXXXOOOO                ",
"                OOOOOOOOOOOOOOOOOOOOOOOOOOOOOOOOOOOOOOOOOOOOOOOO+++o.XXXX.oooo.XX.oooo.XXXX.@+++OOOOOOOOXXXXOOOO                ",
"                OOOOOOOOOOOOOOOOOOOOOOOOOOOOOOOOOOOOOOOOOOOOOOOO+++o.XXXX......XX......XXXX.@+++OOOOXXXOXXXXOOOO                ",
"                OOOOOOOXXXXXXXXOOXXXXXXOOXXXXXXOOXXXXXXXXOOOOOOO+++o.XXXXXXXXXXXXXXXXXXXXXX.@+++OOOOXXXOXXXXOOOO                ",
"                OOOOOOOXXXXXXXXXXXXXXXXXXXXXXXXXXXXXXXXXXOOOOOOO+++o.XXXXXXXXXXOOXXXXXXXXXX.@+++OOOOXXXOOOOOOOOO                ",
"                OOOOOOOXX......XX......XX......XX......XXOOOOOOO+++o...XXOOOOOOOOOOOOOOXX...@+++OOOOOOOOXXXOOOOO                ",
"                OOOOOOOXX.@@@@.XX.@@@@.XX.@@@@.XX.@@@@.XXOOOOOOO+++ooo.XXOOOOOOOOOOOOOOXX.@@@+++OOOOOOXOXXXOOOOO                ",
"                OOOOOOOXX.@@@@....@++@....@++@....@@@@.XXOOOOOOO+++++o.XXOOOOOOOOOOOOOOXX.@+++++OOOOOOOOXXXOOOOO                ",
"                OOOOOOOXX.@@@@@@@@@++@@@@@@++@@@@@@@@@.XXOOOOOOO+++++o.XXOOOOOOOOOOOOOOXX.@+++++OOOOOOOOOOOOOOOO                ",
"                OOOOOOOXX.@@@++++++++++++++++++++++@@@.XXOOOOOOO+++ooo.XXOOOOOOOOOOOOOOXX.@@@+++OOOOOOOOOOOOOOOO                ",
"                OOOOOOOXX...@++++++++++++++++++++++o...XXOOOOOOO+++o...XXOOOOOOOOOOOOOOXX...@+++OOOOOOOOOOOOOOOO                ",
"                OOOOOOOOXXX.@++++++++++++++++++++++o.XXXOOOOOOOO+++o.XXXOOOOOOOOOOOOOOOOXXX.@+++OOOOOOOOOOOOOOOO                ",
"                OOOOOOOOXXX.@++++++++++++++++++++++o.XXXOOOOOOOO+++o.XXXOOOOOOOOOOOOOOOOXXX.@+++OOOOOOOOOOOOOOOO                ",
"                OOOOOOOXX...@++++++++++++++++++++++o...XXOOOOOOO+++o...XXOOOOOOOOOOOOOOXX...@+++OOOOOOOOOOOOOOOO                ",
"                OOOOOOOXX.@@@++++++++++++++++++++++ooo.XXOOOOOOO+++ooo.XXOOOOOOOOOOOOOOXX.@@@+++OOOOOOOOOOOOOOOO                ",
"                OOOOOOOXX.@++++++++++++++++++++++++++o.XXOOOOOOO+++++o.XXOOOOOOOOOOOOOOXX.@+++++OOOOOOOOOOOOOOOO                ",
"                OOOOOOOXX.@++++++++++++++++++++++++++o.XXOOOOOOO+++++o.XXOOOOOOOOOOOOOOXX.@+++++OOOOOOOOOXOOOOOO                ",
"                OOOOOOOXX.@@@++++++++++++++++++++++ooo.XXOOOOOOO+++ooo.XXOOOOOOOOOOOOOOXX.@@@+++OOOOOOXXOOOOOOOO                ",
"                OOOOOOOXX...@++++++++++++++++++++++o...XXOOOOOOO+++o...XXOOOOOOOOOOOOOOXX...@+++OOOOOOXXOXXXOOOO                ",
"                OOOOOOOOXXX.@++++++++++++++++++++++o.XXXOOOOOOOO+++o.XXXXXXXXXXOOXXXXXXXXXX.@+++OOOOOOOOOXXXOOOO                ",
"                OOOOOOOOXXX.@++++++++++++++++++++++o.XXXOOOOOOOO+++o.XXXXXXXXXXXXXXXXXXXXXX.@+++OOOOXXXXOXXXOOOO                ",
"                OOOOOOOXX...@++++++++++++++++++++++o...XXOOOOOOO+++o.XXXX......XX......XXXX.@+++OOOOXXXXOOOOOOOO                ",
"                OOOOOOOXX.@@@++++++++++++++++++++++ooo.XXOOOOOOO+++o.XXXX.@@@@.XX.@@@@.XXXX.@+++OOOOXXXXOXOOOOOO                ",
"                OOOOOOOXX.@++++++++++++++++++++++++++o.XXOOOOOOO+++o......@++@....@++@......@+++OOOOXXXXOOOOOOOO                ",
"                OOOOOOOXX.@++++++++++++++++++++++++++o.XXOOOOOOO+++@@@@@@@@++@@@@@@++@@@@@@@@+++OOOOOOOOOOOOOOOO                ",
"                OOOOOOOXX.@@@++++++++++++++++++++++ooo.XXOOOOOOO++++++++++++++++++++++++++++++++OOOOOOOOOOOOOOOO                ",
"                OOOOOOOXX...@++++++++++++++++++++++o...XXOOOOOOO++++++++++++++++++++++++++++++++OOOOOOOOOOOOOOOO                ",
"                OOOOOOOOXXX.@++++++++++++++++++++++o.XXXOOOOOOOO++++++++++++++++++++++++++++++++OOOOOOOOOOOOOOOO                ",
"                OOOOOOOOXXX.@++++++++++++++++++++++o.XXXOOOOOOOOOOOOOOOOOOOOOOOOOOOOOOOOOOOOOOOOOOOOOOOOOOOOOOOO                ",
"                OOOOOOOXX...@++++++++++++++++++++++o...XXOOOOOOOOOOOOOOOOOOOOOOOOOOOOOOOOOOOOOOOOOOOOOOOOOOOOOOO                ",
"                OOOOOOOXX.ooo++++++++++++++++++++++ooo.XXOOOOOOOOOOOOOOOOOOOOOOOOOOOOOOOOOOOOOOOOOOOOOOOOOOOOOOO                ",
"                OOOOOOOXX.ooooooooo++oooooo++ooooooooo.XXOOOOOOOOOOOOOOOOOOOOOOOOOOOOOOOOOOOOOOOOOOOOOOOOOOOOOOO                ",
"                OOOOOOOXX.oooo....o++o....o++o....oooo.XXOOOOOOOOOOOOOOOOOOOOOOOOOOOOOOOOOOOOOOOOOOOOOXXXOOOOOOO                ",
"                OOOOOOOXX.oooo.XX.oooo.XX.oooo.XX.oooo.XXOOOOOOOOOOOOOOOOOOOOOOOOOOOOXXXOOOOOOOOOOOOOOXXXOOOOOOO                ",
"                OOOOOOOXX......XX......XX......XX......XXOOOOOOOOOOOOOOOOOOOOOOOOOOOOXXXOXOOOOOOOOOOXOXXXOXOOOOO                ",
"                OOOOOOOXXXXXXXXXXXXXXXXXXXXXXXXXXXXXXXXXXOOOOOOOOOOOOOOOOOOOOOOOOOOOOXXXOOOOOOOOOOOOOOOOOOOOOOOO                ",
"                OOOOOOOXXXXXXXXOOXXXXXXOOXXXXXXOOXXXXXXXXOOOOOOOOOOOOOOOOOOOOOOOOOOOOOOOOXXOOOOOOOOOOXXOXXXXOOOO                ",
"                OOOOOOOOOOOOOOOOOOOOOOOOOOOOOOOOOOOOOOOOOOOOOOOOOOOOOOOOOOOOOOOOOOOOOOXXOXXOOOOOOOOOOXXOXXXXOOOO                ",
"                OOOOOOOOOOOOOOOOOOOOOOOOOOOOOOOOOOOOOOOOOOOOOOOOOOOOOOOOOOOOOOOOOOOOOOXXOOOOOOOOOOOOOOOOXXXXOOOO                ",
"                OOOOOOOOOOOOOOOOOOOOOOOOOOOOOOOOOOOOOOOOOOOOOOOOOOOOOOOOOOOOOOOOOOOOOOOOOOOOOOOOOOOOOOOOXXXXOOOO                ",
"                OOOOOOOOOOOOOOOOOOOOOOOOOOOOOOOOOOOOOOOOOOOOOOOOOOOOOOOOOOOOOOOOOOOOOOOOOOOOOOOOOOOOOOOOOOOOOOOO                ",
"                OOOOOOOOOOOOOOOOOOOOOOOOOOOOOOOOOOOOOOOOOOOOOOOOOOOOOOOOOOOOOOOOOOOOOOOOOOOOOOOOOOOOOOOOOOOOOOOO                ",
"                OOOOOOOOOOOOOOOOOOOOOOOOOOOOOOOOOOOOOOOOOOOOOOOOOOOOOOOOOOOOOOOOOOOOOOOOOOOOOOOOOOOOOOOOOOOOOOOO                ",
"                OOOOOOOOOOOOOOOOOOOOOOOOOOOOOOOOOOOOOOOOOOOOOOOOOOOOOOOOOOOOOOOOOOOOOOOOOOOOOOOOOOOOOOOOOOOOOOOO                ",
"                                                                                                                                ",
"                                                                                                                                ",
"                                                                                                                                ",
"                                                                                                                                ",
"                                                                                                                                ",
"                                                                                                                                ",
"                                                                                                                                ",
"                                                                                                                                ",
"                                                                                                                                ",
"                                                                                                                                ",
"                                                                                                                                ",
"                                                                                                                                ",
"                                                                                                                                ",
"                                                                                                                                ",
"                                                                                                                                ",
"                                                                                                                                "
};
