/* XPM */
static char * pine_tree_xpm[] = {
"128 128 7 1",
" 	c None",
".	c #353540",
"+	c #557D55",
"@	c #EDE4DA",
"#	c #446350",
"$	c #604B3D",
"%	c #735B42",
"                                               ..................................                                               ",
"                                               ..................................                                               ",
"                                               ..................................                                               ",
"                                               ..................................                                               ",
"                                               ..................................                                               ",
"                                         ...........++++++++++++@@@@@@@@@@@@...........                                         ",
"                                         ...........++++++++++++@@@@@@@@@@@@...........                                         ",
"                                         ...........++++++++++++@@@@@@@@@@@@...........                                         ",
"                                         ...........++++++++++++@@@@@@@@@@@@...........                                         ",
"                                         ...........++++++++++++@@@@@@@@@@@@...........                                         ",
"                                         ...........++++++++++++@@@@@@@@@@@@...........                                         ",
"                                         ......+++++++++++++++++++++++@@@@@@@@@@@......                                         ",
"                                         ......+++++++++++++++++++++++@@@@@@@@@@@......                                         ",
"                                         ......+++++++++++++++++++++++@@@@@@@@@@@......                                         ",
"                                         ......+++++++++++++++++++++++@@@@@@@@@@@......                                         ",
"                                         ......+++++++++++++++++++++++@@@@@@@@@@@......                                         ",
"                                         ......+++++++++++++++++++++++@@@@@@@@@@@......                                         ",
"                                   ............++++++++++++++++++++++++++++++++++............                                   ",
"                                   ............++++++++++++++++++++++++++++++++++............                                   ",
"                                   ............++++++++++++++++++++++++++++++++++............                                   ",
"                                   ............++++++++++++++++++++++++++++++++++............                                   ",
"                                   ............++++++++++++++++++++++++++++++++++............                                   ",
"                                   ............++++++++++++++++++++++++++++++++++............                                   ",
"                                   ......++++++++++++++++++++++++++++++++++++++++@@@@@@......                                   ",
"                                   ......++++++++++++++++++++++++++++++++++++++++@@@@@@......                                   ",
"                                   ......++++++++++++++++++++++++++++++++++++++++@@@@@@......                                   ",
"                                   ......++++++++++++++++++++++++++++++++++++++++@@@@@@......                                   ",
"                                   ......++++++++++++++++++++++++++++++++++++++++@@@@@@......                                   ",
"                                   ......++++++++++++++++++++++++++++++++++++++++@@@@@@......                                   ",
"                             ............++++++#####++++++++++++++++++++++++#####++++++............                             ",
"                             ............++++++#####++++++++++++++++++++++++#####++++++............                             ",
"                             ............++++++#####++++++++++++++++++++++++#####++++++............                             ",
"                             ............++++++#####++++++++++++++++++++++++#####++++++............                             ",
"                             ............++++++#####++++++++++++++++++++++++#####++++++............                             ",
"                             ............++++++#####++++++++++++++++++++++++#####++++++............                             ",
"                             ......++++++++++++##################################++++++@@@@@@......                             ",
"                             ......++++++++++++##################################++++++@@@@@@......                             ",
"                             ......++++++++++++##################################++++++@@@@@@......                             ",
"                             ......++++++++++++##################################++++++@@@@@@......                             ",
"                             ......++++++++++++##################################++++++@@@@@@......                             ",
"                             ......+++++++++++++++++########################+++++++++++++++++......                             ",
"                             ......+++++++++++++++++########################+++++++++++++++++......                             ",
"                             ......+++++++++++++++++########################+++++++++++++++++......                             ",
"                             ......+++++++++++++++++########################+++++++++++++++++......                             ",
"                             ......+++++++++++++++++########################+++++++++++++++++......                             ",
"                             ......+++++++++++++++++########################+++++++++++++++++......                             ",
"                             ......++++++######++++++++++++++++++++++++++++++++++######++++++......                             ",
"                             ......++++++######++++++++++++++++++++++++++++++++++######++++++......                             ",
"                             ......++++++######++++++++++++++++++++++++++++++++++######++++++......                             ",
"                             ......++++++######++++++++++++++++++++++++++++++++++######++++++......                             ",
"                             ......++++++######++++++++++++++++++++++++++++++++++######++++++......                             ",
"                             ......++++++######++++++++++++++++++++++++++++++++++######++++++......                             ",
"                             ......++++++##############################################++++++......                             ",
"                             ......++++++##############################################++++++......                             ",
"                             ......++++++##############################################++++++......                             ",
"                             ......++++++##############################################++++++......                             ",
"                             ......++++++##############################################++++++......                             ",
"                             ......++++++##############################################++++++......                             ",
"                             ......++++++++++++##################################++++++++++++......                             ",
"                             ......++++++++++++##################################++++++++++++......                             ",
"                             ......++++++++++++##################################++++++++++++......                             ",
"                             ......++++++++++++##################################++++++++++++......                             ",
"                             ......++++++++++++##################################++++++++++++......                             ",
"                             ......++++++++++++##################################++++++++++++......                             ",
"                             ......######++++++++++++++++++++++++++++++++++++++++++++++######......                             ",
"                             ......######++++++++++++++++++++++++++++++++++++++++++++++######......                             ",
"                             ......######++++++++++++++++++++++++++++++++++++++++++++++######......                             ",
"                             ......######++++++++++++++++++++++++++++++++++++++++++++++######......                             ",
"                             ......######++++++++++++++++++++++++++++++++++++++++++++++######......                             ",
"                             ......##########################################################......                             ",
"                             ......##########################################################......                             ",
"                             ......##########################################################......                             ",
"                             ......##########################################################......                             ",
"                             ......##########################################################......                             ",
"                             ......##########################################################......                             ",
"                             ............##############################################............                             ",
"                             ............##############################################............                             ",
"                             ............##############################################............                             ",
"                             ............##############################################............                             ",
"                             ............##############################################............                             ",
"                             ............##############################################............                             ",
"                             ++++++.................$$$$$$$$$$$$$$$$$$$$$$$$.................++++++                             ",
"                             ++++++.................$$$$$$$$$$$$$$$$$$$$$$$$.................++++++                             ",
"                             ++++++.................$$$$$$$$$$$$$$$$$$$$$$$$.................++++++                             ",
"                             ++++++.................$$$$$$$$$$$$$$$$$$$$$$$$.................++++++                             ",
"                             ++++++.................$$$$$$$$$$$$$$$$$$$$$$$$.................++++++                             ",
"                             ++++++.................$$$$$$$$$$$$$$$$$$$$$$$$.................++++++                             ",
"                             ++++++++++++...........%%%%%%%%%%%%%%%%%%%%%%%%...........++++++++++++                             ",
"                             ++++++++++++...........%%%%%%%%%%%%%%%%%%%%%%%%...........++++++++++++                             ",
"                             ++++++++++++...........%%%%%%%%%%%%%%%%%%%%%%%%...........++++++++++++                             ",
"                             ++++++++++++...........%%%%%%%%%%%%%%%%%%%%%%%%...........++++++++++++                             ",
"                             ++++++++++++...........%%%%%%%%%%%%%%%%%%%%%%%%...........++++++++++++                             ",
"                             ++++++++++++...........%%%%%%%%%%%%%%%%%%%%%%%%...........++++++++++++                             ",
"                             ++++++++++++......%%%%%%%%%%%%%%%%%%%%%%%%%%%%%%%%%%......++++++++++++                             ",
"                             ++++++++++++......%%%%%%%%%%%%%%%%%%%%%%%%%%%%%%%%%%......++++++++++++                             ",
"                             ++++++++++++......%%%%%%%%%%%%%%%%%%%%%%%%%%%%%%%%%%......++++++++++++                             ",
"                             ++++++++++++......%%%%%%%%%%%%%%%%%%%%%%%%%%%%%%%%%%......++++++++++++                             ",
"                             ++++++++++++......%%%%%%%%%%%%%%%%%%%%%%%%%%%%%%%%%%......++++++++++++                             ",
"                             ++++++++++++......%%%%%%%%%%%%%%%%%%%%%%%%%%%%%%%%%%......++++++++++++                             ",
"                             ++++++++++++......%%%%%%%%%%%%%%%%%%%%%%%%%%%%%%%%%%......++++++++++++                             ",
"                             ++++++++++++......%%%%%%%%%%%%%%%%%%%%%%%%%%%%%%%%%%......++++++++++++                             ",
"                             ++++++++++++......%%%%%%%%%%%%%%%%%%%%%%%%%%%%%%%%%%......++++++++++++                             ",
"                             ++++++++++++......%%%%%%%%%%%%%%%%%%%%%%%%%%%%%%%%%%......++++++++++++                             ",
"                             ++++++++++++......%%%%%%%%%%%%%%%%%%%%%%%%%%%%%%%%%%......++++++++++++                             ",
"                             ++++++++++++...........%%%%%%%%%%%%%%%%%%%%%%%%...........++++++++++++                             ",
"                             ++++++++++++...........%%%%%%%%%%%%%%%%%%%%%%%%...........++++++++++++                             ",
"                             ++++++++++++...........%%%%%%%%%%%%%%%%%%%%%%%%...........++++++++++++                             ",
"                             ++++++++++++...........%%%%%%%%%%%%%%%%%%%%%%%%...........++++++++++++                             ",
"                             ++++++++++++...........%%%%%%%%%%%%%%%%%%%%%%%%...........++++++++++++                             ",
"                             ++++++++++++...........%%%%%%%%%%%%%%%%%%%%%%%%...........++++++++++++                             ",
"                             ++++++++++++++++++..................................++++++++++++++++++                             ",
"                             ++++++++++++++++++..................................++++++++++++++++++                             ",
"                             ++++++++++++++++++..................................++++++++++++++++++                             ",
"                             ++++++++++++++++++..................................++++++++++++++++++                             ",
"                             ++++++++++++++++++..................................++++++++++++++++++                             ",
"                             ++++++++++++++++++..................................++++++++++++++++++                             ",
"                             ++++++++++++++++++++++++++++++++++++++++++++++++++++++++++++++++++++++                             ",
"                             ++++++++++++++++++++++++++++++++++++++++++++++++++++++++++++++++++++++                             ",
"                             ++++++++++++++++++++++++++++++++++++++++++++++++++++++++++++++++++++++                             ",
"                             ++++++++++++++++++++++++++++++++++++++++++++++++++++++++++++++++++++++                             ",
"                             ++++++++++++++++++++++++++++++++++++++++++++++++++++++++++++++++++++++                             ",
"                             ++++++++++++++++++++++++++++++++++++++++++++++++++++++++++++++++++++++                             ",
"                                   ++++++++++++++++++++++++++++++++++++++++++++++++++++++++++                                   ",
"                                   ++++++++++++++++++++++++++++++++++++++++++++++++++++++++++                                   ",
"                                   ++++++++++++++++++++++++++++++++++++++++++++++++++++++++++                                   ",
"                                   ++++++++++++++++++++++++++++++++++++++++++++++++++++++++++                                   ",
"                                   ++++++++++++++++++++++++++++++++++++++++++++++++++++++++++                                   ",
"                                   ++++++++++++++++++++++++++++++++++++++++++++++++++++++++++                                   "};
