/* XPM */
static char * portal3_xpm[] = {
"128 128 9 1",
" 	c #8B9150",
".	c #7A5C93",
"+	c #A57EBC",
"@	c #B78FD0",
"#	c #557D55",
"$	c #8C6DA7",
"%	c #1E1B41",
"&	c #4C4A6A",
"*	c #5E4D7D",
"                                                                                                                                ",
"                                                                                                                                ",
"                                                                                                                                ",
"                                                                                                                                ",
"                                                          ........++++++++++++                                                  ",
"                                                          ........++++++++++++                                                  ",
"                                                          ........++++++++++++                                                  ",
"                                                          ........++++++++++++                                                  ",
"                                                      ........++++++++++++++++                                                  ",
"                                                      ........++++++++++++++++                                                  ",
"                                                      ........++++++++++++++++                                                  ",
"                                                      ........++++++++++++++++                                                  ",
"                                                      ....++++@@@@@@@@@@@@+++++++++                                             ",
"                                                      ....++++@@@@@@@@@@@@+++++++++                                             ",
"                                                      ....++++@@@@@@@@@@@@+++++++++                                             ",
"                                                      ....++++@@@@@@@@@@@@+++++++++                                             ",
"                         ####                     ....$$$$++++@@@@@@@@@@@@@@@@+++++                ####                         ",
"                         ####                     ....$$$$++++@@@@@@@@@@@@@@@@+++++                ####                         ",
"                         ####                     ....$$$$++++@@@@@@@@@@@@@@@@+++++                ####                         ",
"                         ####                     ....$$$$++++@@@@@@@@@@@@@@@@+++++                ####                         ",
"                 ####    ####@@@@@@@@             ....++++@@@@@@@@@@@@@@@@@@@@@@@@@++++      ##    ####    ####                 ",
"                 ####    ####@@@@@@@@             ....++++@@@@@@@@@@@@@@@@@@@@@@@@@++++      ##    ####    ####                 ",
"                 ####    ####@@@@@@@@             ....++++@@@@@@@@@@@@@@@@@@@@@@@@@++++      ##    ####    ####                 ",
"                 ####    ####@@@@@@@@             ....++++@@@@@@@@@@@@@@@@@@@@@@@@@++++      ##    ####    ####                 ",
"                 ####    ####  ####          .........++++@@@@@@@@++++++++++++@@@@@++++      ##    ####    ####                 ",
"                 ####    ####  ####          .........++++@@@@@@@@++++++++++++@@@@@++++      ##    ####    ####                 ",
"                 ####    ####  ####          .........++++@@@@@@@@++++++++++++@@@@@++++      ##    ####    ####                 ",
"                 ####    ####  ####          .........++++@@@@@@@@++++++++++++@@@@@++++      ##    ####    ####                 ",
"                                             .....$$$$++++@@@@+++++++++++++++++++++@@@@                                         ",
"                                             .....$$$$++++@@@@+++++++++++++++++++++@@@@                                         ",
"                                             .....$$$$++++@@@@+++++++++++++++++++++@@@@                                         ",
"                                             .....$$$$++++@@@@+++++++++++++++++++++@@@@                                         ",
"                                 ....        .....++++@@@@@@@@++++++++%%%%&&&&+++++@@@@                                         ",
"                                 ....        .....++++@@@@@@@@++++++++%%%%&&&&+++++@@@@                                         ",
"                                 ....        .....++++@@@@@@@@++++++++%%%%&&&&+++++@@@@                                         ",
"                                 ....        .....++++@@@@@@@@++++++++%%%%&&&&+++++@@@@                                         ",
"                                             .....++++@@@@@@@@++++%%%%%%%%&&&&*****++++++++                                     ",
"                                             .....++++@@@@@@@@++++%%%%%%%%&&&&*****++++++++                                     ",
"                                             .....++++@@@@@@@@++++%%%%%%%%&&&&*****++++++++                                     ",
"                                             .....++++@@@@@@@@++++%%%%%%%%&&&&*****++++++++                                     ",
"                                         ....$$$$$++++@@@@++++++++%%%%%%%%&&&&&&&&&++++@@@@                                     ",
"                                         ....$$$$$++++@@@@++++++++%%%%%%%%&&&&&&&&&++++@@@@                                     ",
"                                         ....$$$$$++++@@@@++++++++%%%%%%%%&&&&&&&&&++++@@@@                                     ",
"                                         ....$$$$$++++@@@@++++++++%%%%%%%%&&&&&&&&&++++@@@@                                     ",
"                                         ....*****++++@@@@++++%%%%%%%%%%%%&&&&&&&&&++++@@@@                                     ",
"                                         ....*****++++@@@@++++%%%%%%%%%%%%&&&&&&&&&++++@@@@                                     ",
"                                         ....*****++++@@@@++++%%%%%%%%%%%%&&&&&&&&&++++@@@@                                     ",
"                                         ....*****++++@@@@++++%%%%%%%%%%%%&&&&&&&&&++++@@@@                                     ",
"                                         ....*****++++++++++++%%%%%%%%%%%%%%%%&&&&&++++@@@@                                     ",
"                                         ....*****++++++++++++%%%%%%%%%%%%%%%%&&&&&++++@@@@                                     ",
"                                         ....*****++++++++++++%%%%%%%%%%%%%%%%&&&&&++++@@@@                                     ",
"                                         ....*****++++++++++++%%%%%%%%%%%%%%%%&&&&&++++@@@@                                     ",
"                                         ....*****++++++++++++%%%%%%%%%%%%%%%%&&&&&****++++                                     ",
"                                         ....*****++++++++++++%%%%%%%%%%%%%%%%&&&&&****++++                                     ",
"                                         ....*****++++++++++++%%%%%%%%%%%%%%%%&&&&&****++++                                     ",
"                                         ....*****++++++++++++%%%%%%%%%%%%%%%%&&&&&****++++                                     ",
"                                         ....*****++++@@@@%%%%%%%%%%%%%%%%%%%%&&&&&****++++                                     ",
"                                         ....*****++++@@@@%%%%%%%%%%%%%%%%%%%%&&&&&****++++                                     ",
"                                         ....*****++++@@@@%%%%%%%%%%%%%%%%%%%%&&&&&****++++                                     ",
"                                         ....*****++++@@@@%%%%%%%%%%%%%%%%%%%%&&&&&****++++                                     ",
"                                         ....*****++++@@@@%%%%%%%%%%%%%%%%%%%%&&&&&****++++                                     ",
"                                         ....*****++++@@@@%%%%%%%%%%%%%%%%%%%%&&&&&****++++                                     ",
"                                         ....*****++++@@@@%%%%%%%%%%%%%%%%%%%%&&&&&****++++                                     ",
"                                         ....*****++++@@@@%%%%%%%%%%%%%%%%%%%%&&&&&****++++                                     ",
"                                         ....*****++++@@@@%%%%............%%%%&&&&&****++++                                     ",
"                                         ....*****++++@@@@%%%%............%%%%&&&&&****++++                                     ",
"                                         ....*****++++@@@@%%%%............%%%%&&&&&****++++                                     ",
"                                         ....*****++++@@@@%%%%............%%%%&&&&&****++++                                     ",
"                                         .........++++++++%%%%....++++........&&&&&****++++                                     ",
"                                         .........++++++++%%%%....++++........&&&&&****++++                                     ",
"                                         .........++++++++%%%%....++++........&&&&&****++++                                     ",
"                                         .........++++++++%%%%....++++........&&&&&****++++                                     ",
"                                         ++++.....&&&&++++++++%%%%++++%%%%.........****++++                                     ",
"                                         ++++.....&&&&++++++++%%%%++++%%%%.........****++++                                     ",
"                                         ++++.....&&&&++++++++%%%%++++%%%%.........****++++                                     ",
"                                         ++++.....&&&&++++++++%%%%++++%%%%.........****++++                                     ",
"                                         ++++.....&&&&%%%%++++++++%%%%%%%%.........****++++                                     ",
"                                         ++++.....&&&&%%%%++++++++%%%%%%%%.........****++++                                     ",
"                                         ++++.....&&&&%%%%++++++++%%%%%%%%.........****++++                                     ",
"                                         ++++.....&&&&%%%%++++++++%%%%%%%%.........****++++                                     ",
"                                         ++++.........&&&&%%%%%%%%%%%%%%%%++++.....****++++                                     ",
"                                         ++++.........&&&&%%%%%%%%%%%%%%%%++++.....****++++                                     ",
"                                         ++++.........&&&&%%%%%%%%%%%%%%%%++++.....****++++                                     ",
"                                         ++++.........&&&&%%%%%%%%%%%%%%%%++++.....****++++                                     ",
"                                         +++++++++....&&&&%%%%%%%%%%%%....++++.............                                     ",
"                                         +++++++++....&&&&%%%%%%%%%%%%....++++.............                                     ",
"                                         +++++++++....&&&&%%%%%%%%%%%%....++++.............                                     ",
"                                         +++++++++....&&&&%%%%%%%%%%%%....++++.............                                     ",
"                                             +++++........................++++.........                                         ",
"                                             +++++........................++++.........                                         ",
"                                             +++++........................++++.........                                         ",
"                                             +++++........................++++.........                                         ",
"                                             +++++++++++++++++++++++++++++....*****....                                         ",
"                                             +++++++++++++++++++++++++++++....*****....                                         ",
"                                             +++++++++++++++++++++++++++++....*****....                                         ",
"                                             +++++++++++++++++++++++++++++....*****....                                         ",
"                         ####                .........++++++++++++........****$$$$$++++                                         ",
"                         ####                .........++++++++++++........****$$$$$++++                                         ",
"                         ####                .........++++++++++++........****$$$$$++++                                         ",
"                         ####                .........++++++++++++........****$$$$$++++                                         ",
"                 ####    ####  ####          .....................%%%%&&&&****.....++++            ####                         ",
"                 ####    ####  ####          .....................%%%%&&&&****.....++++            ####                         ",
"                 ####    ####  ####          .....................%%%%&&&&****.....++++            ####                         ",
"                 ####    ####  ####          .....................%%%%&&&&****.....++++            ####                         ",
"                 ####    ####  ####               ....$$$$****&&&&&&&&****$$$$.....          ##    ####    ####                 ",
"                 ####    ####  ####               ....$$$$****&&&&&&&&****$$$$.....          ##    ####    ####                 ",
"                 ####    ####  ####               ....$$$$****&&&&&&&&****$$$$.....          ##    ####    ####                 ",
"                 ####    ####  ####               ....$$$$****&&&&&&&&****$$$$.....          ##    ####    ####                 ",
"                                                  ........****************....+++++        ........                             ",
"                                                  ........****************....+++++        ........                             ",
"                                                  ........****************....+++++        ........                             ",
"                                                  ........****************....+++++        ........                             ",
"                                             .....    ....$$$$********$$$$....             ........                             ",
"                                             .....    ....$$$$********$$$$....             ........                             ",
"                                             .....    ....$$$$********$$$$....             ........                             ",
"                                             .....    ....$$$$********$$$$....             ........                             ",
"                                                      ........$$$$$$$$....++++                                                  ",
"                                                      ........$$$$$$$$....++++                                                  ",
"                                                      ........$$$$$$$$....++++                                                  ",
"                                                      ........$$$$$$$$....++++                                                  ",
"                                                          ................                                                      ",
"                                                          ................                                                      ",
"                                                          ................                                                      ",
"                                                          ................                                                      ",
"                                                                                                                                ",
"                                                                                                                                ",
"                                                                                                                                ",
"                                                                                                                                "};
