/* XPM */
static char *_f70edda8404497cac2c85008eb74d5cDGqdDMquA4ElX1Mc[] = {
/* columns rows colors chars-per-pixel */
"96 64 9 1 ",
"  c None",
". c #1E1B41",
"X c #3A3358",
"o c #4C4A6A",
"O c #5E4D7D",
"+ c #7A5C93",
"@ c #8C6DA7",
"# c #A57EBC",
"$ c #B78FD0",
/* pixels */
"                                                                                                ",
"               #+++                            ++++                            ++###            ",
"              #++@++                          #+OO++                          ++####            ",
"              #+@O@+                          +OOOO+                          +#$$$##           ",
"             #+@ooO@+                        #OOooOO+                        +@#$$$$#           ",
"             #+o..oO+                   #$   +Oo..oO+                   $$   +#$$$$$$#          ",
"         ## ##+o..oO++                  $$  #+Oo..oO++                      ++#$$###$#          ",
"         ## #+@o..oo@+                      #+O....###                      +@#$#####$          ",
"            #+o....oO+                      ++o..#####                   +  +#$$##.o#$          ",
"            #+o....oO+                    # +Oo.###$$$                      +#$$#..oO##         ",
"           ##+o....oo++                    ++o.##$$$$$$                    +@#$##..oo#$         ",
"           ##+.....oo@+ #                  +Oo.#$$$$$$$                    +O#$#...oo#$         ",
"           ##+......oO+                    +Oo#$$###$$$                    +O###....o#$         ",
"         + ##+....####+                    +Oo#$######$                    +O###....oO#         ",
"           +#+..###$$##                    +Oo#$#...##$                    +O#$.....oO#         ",
"           +##+##$$$$$#                    +Oo##....o#$                    +O#$.....oO#         ",
"           ++#+#####$$$                    #+o##.++.o##                    +O#$.+++.oO#         ",
"           +++++.+.##$$                    #+o##.#++o##                    ++##.+#++oO#         ",
"           +O+#+++..#$$                    ##+.###++o#$                    #+o##.#.++O#         ",
"           +Oo+++...#$$                    ##+++..++o#$                    #+o.##..++O#         ",
"           #@oo....o#$$                    +###+++#+o##                    #++o....#+O#         ",
"           #+Oo....o#$#                    #++###++.O##                    ##+o...+#+++         ",
"            +Oo....o##                      +O++++.o###                     #++++++#++          ",
"            +Oo....o$#                      +Oo....o###                     #######+O+          ",
"            #@Oo..o#$#                      +OO....O#$                      ++###++O@#          ",
"            #+Oo..o###                      #+Oo..oO#$                      +++++.oO+#          ",
"            #+@OooO###                       +OOooOO##+                      +@OooO@+           ",
"             #+OOO###                        #+OOOO## +                      ++OOOO+#  ++       ",
"             ##O###$#                         +OOOO#                        + +@OO@+   ++       ",
"              ####$#                          #+OO##                          ++@@+#            ",
"               #####                           ####                            ++++             ",
"                                                                                                ",
"                                                                                                ",
"              #$###                            ##++                            ++++             ",
"              $##O+#                          #+@@+#                          ++++++            ",
"             ###OOO+                          #@OO@+                          +++###            ",
"         $   $#OXXOO#                        #@OooO@+                        #O+#####           ",
"            #$#X..XO+                        #Oo..oO+                        +++#####           ",
"            $$#X..XO+#                      $#Oo..oO++                      #++#######          ",
"            $#O....XO#                      $#O....+++                      #O+##+++##          ",
"           #$#X....XO+                      ##o..+++++                     #+++##+.o+#          ",
"           #$#X....XO+                     ##Oo.+++###                      ++##+..oO+          ",
"           $$#......X+#                    ##o.++######                    #O+##+..oo+#         ",
"           $$#......XO#                    #Oo.+#######                    #O+#+...oo+#         ",
"           $$#......XO+                    #Oo++#+++###                    #O+#+....o+# ##      ",
"           $$#....+++++                    #Oo+##++++## ##                 #O+#+....oO+  #      ",
"           #$#..+++###+                    #Oo+#+...++# #$               ++#O+#.....oO+         ",
"           #$##++######                   +#Oo+#....o+# $                + #O+#.....oO+         ",
"           +#$#+++++###$                  +$#o++.##.o+#                    #O++.###.oO+         ",
"           +#$#+.#.++##                    $#o++.+##o+#                    ##++.++##oO+         ",
"           +O#$#+#..+##                    $##.+++$#o+#                    $#o++.+.##O+         ",
"           +OX###...+##                    $$###..$#o+#                    $#o.++..##O+         ",
"           +OX......+##                    #$$$#####o+#                    $##o....##O+         ",
"           ++OX....X+##                    +###$$##.@++                    $$#o...#$#++         ",
"            +OX....X+#                     #+O####.o++                     #$#####$$#+          ",
"            +OX....X+#                      +Oo....o++                      $$$$$###O+          ",
"            +OO....+##                      +@O....O+#                      #$$$###OO+          ",
"            ++OX..X+##                      ++Oo..oO+#                   +  +####.oO++          ",
"             +OOXXO+#                    ++  +@OooO@+    #                   +OOooOO+           ",
"          ++ ++OOO+##   ##               +   ++OOOO+#                        ++OOOO++           ",
"          ++  +O+++#     #                    +@OO@+                          +OOOO+            ",
"              ++####                          ++@@+#                          ++OO++            ",
"               ++++                            ++++                            ++++             ",
"                                                                                                "
};
