/* XPM */
static char * portal2_xpm[] = {
"128 128 8 1",
" 	c #8B9150",
".	c #7A5C93",
"+	c #A57EBC",
"@	c #5E4D7D",
"#	c #557D55",
"$	c #4C4A6A",
"%	c #B78FD0",
"&	c #1E1B41",
"                                                                                                                                ",
"                                                                                                                                ",
"                                                                                                                                ",
"                                                                                                                                ",
"                                                      ................                                                          ",
"                                                      ................                                                          ",
"                                                      ................                                                          ",
"                                                      ................                                                          ",
"                                                  ++++....@@@@@@@@.......                                                       ",
"                                                  ++++....@@@@@@@@.......                                                       ",
"                                                  ++++....@@@@@@@@.......                                                       ",
"                                                  ++++....@@@@@@@@.......                                                       ",
"                                                  ....@@@@@@@@@@@@@@@@...                                                       ",
"                                                  ....@@@@@@@@@@@@@@@@...                                                       ",
"                                                  ....@@@@@@@@@@@@@@@@...                                                       ",
"                                                  ....@@@@@@@@@@@@@@@@...                                                       ",
"                         ####                 ++++@@@@@@@@$$$$$$$$@@@@@@@....                      ####                         ",
"                         ####                 ++++@@@@@@@@$$$$$$$$@@@@@@@....                      ####                         ",
"                         ####                 ++++@@@@@@@@$$$$$$$$@@@@@@@....                      ####                         ",
"                         ####                 ++++@@@@@@@@$$$$$$$$@@@@@@@....                      ####                         ",
"                 ####    ##++++%%%%           ....@@@@$$$$&&&&&&&&$$$$@@@....                ##    ####    ####                 ",
"                 ####    ##++++%%%%           ....@@@@$$$$&&&&&&&&$$$$@@@....                ##    ####    ####                 ",
"                 ####    ##++++%%%%           ....@@@@$$$$&&&&&&&&$$$$@@@....                ##    ####    ####                 ",
"                 ####    ##++++%%%%           ....@@@@$$$$&&&&&&&&$$$$@@@....                ##    ####    ####                 ",
"                 ####    ##%%%%%%%%       ++++....@@@@$$$$&&&&&&&&$$$$@@@........            ##    ####    ####                 ",
"                 ####    ##%%%%%%%%       ++++....@@@@$$$$&&&&&&&&$$$$@@@........            ##    ####    ####                 ",
"                 ####    ##%%%%%%%%       ++++....@@@@$$$$&&&&&&&&$$$$@@@........            ##    ####    ####                 ",
"                 ####    ##%%%%%%%%       ++++....@@@@$$$$&&&&&&&&$$$$@@@........            ##    ####    ####                 ",
"                                          ++++....@@@@&&&&&&&&&&&&&&&&+++++++++++                                               ",
"                                          ++++....@@@@&&&&&&&&&&&&&&&&+++++++++++                                               ",
"                                          ++++....@@@@&&&&&&&&&&&&&&&&+++++++++++                                               ",
"                                          ++++....@@@@&&&&&&&&&&&&&&&&+++++++++++                                               ",
"                                          ........$$$$&&&&&&&&+++++++++++++++++++                                               ",
"                                          ........$$$$&&&&&&&&+++++++++++++++++++                                               ",
"                                          ........$$$$&&&&&&&&+++++++++++++++++++                                               ",
"                                          ........$$$$&&&&&&&&+++++++++++++++++++                                               ",
"                                   ++++   ....@@@@$$$$&&&&++++++++++++%%%%%%%%%%%                                               ",
"                                   ++++   ....@@@@$$$$&&&&++++++++++++%%%%%%%%%%%                                               ",
"                                   ++++   ....@@@@$$$$&&&&++++++++++++%%%%%%%%%%%                                               ",
"                                   ++++   ....@@@@$$$$&&&&++++++++++++%%%%%%%%%%%                                               ",
"                                       .......$$$$&&&&++++++++%%%%%%%%%%%%%%%%%%%%%%%                                           ",
"                                       .......$$$$&&&&++++++++%%%%%%%%%%%%%%%%%%%%%%%                                           ",
"                                       .......$$$$&&&&++++++++%%%%%%%%%%%%%%%%%%%%%%%                                           ",
"                                       .......$$$$&&&&++++++++%%%%%%%%%%%%%%%%%%%%%%%                                           ",
"                                       ...@@@@$$$$&&&&++++%%%%%%%%%%%%%%%%%%%%%%%%%%%                                           ",
"                                       ...@@@@$$$$&&&&++++%%%%%%%%%%%%%%%%%%%%%%%%%%%                                           ",
"                                       ...@@@@$$$$&&&&++++%%%%%%%%%%%%%%%%%%%%%%%%%%%                                           ",
"                                       ...@@@@$$$$&&&&++++%%%%%%%%%%%%%%%%%%%%%%%%%%%                                           ",
"                                       ...@@@@$$$$++++%%%%%%%%+++++++++++%%%%%%%%%%%%                                           ",
"                                       ...@@@@$$$$++++%%%%%%%%+++++++++++%%%%%%%%%%%%                                           ",
"                                       ...@@@@$$$$++++%%%%%%%%+++++++++++%%%%%%%%%%%%                                           ",
"                                       ...@@@@$$$$++++%%%%%%%%+++++++++++%%%%%%%%%%%%                                           ",
"                                       ...@@@@$$$$++++%%%%+++++++++++++++++++++++%%%%                                           ",
"                                       ...@@@@$$$$++++%%%%+++++++++++++++++++++++%%%%                                           ",
"                                       ...@@@@$$$$++++%%%%+++++++++++++++++++++++%%%%                                           ",
"                                       ...@@@@$$$$++++%%%%+++++++++++++++++++++++%%%%                                           ",
"                                       ...@@@@$$$$++++%%%%++++&&&&&&&&&&&++++++++%%%%                                           ",
"                                       ...@@@@$$$$++++%%%%++++&&&&&&&&&&&++++++++%%%%                                           ",
"                                       ...@@@@$$$$++++%%%%++++&&&&&&&&&&&++++++++%%%%                                           ",
"                                       ...@@@@$$$$++++%%%%++++&&&&&&&&&&&++++++++%%%%                                           ",
"                                       ...@@@@$$$$++++++++&&&&&&&&&&&&&&&$$$$++++%%%%                                           ",
"                                       ...@@@@$$$$++++++++&&&&&&&&&&&&&&&$$$$++++%%%%                                           ",
"                                       ...@@@@$$$$++++++++&&&&&&&&&&&&&&&$$$$++++%%%%                                           ",
"                                       ...@@@@$$$$++++++++&&&&&&&&&&&&&&&$$$$++++%%%%                                           ",
"                                       +++....$$$$++++++++&&&&........&&&$$$$++++++++                                           ",
"                                       +++....$$$$++++++++&&&&........&&&$$$$++++++++                                           ",
"                                       +++....$$$$++++++++&&&&........&&&$$$$++++++++                                           ",
"                                       +++....$$$$++++++++&&&&........&&&$$$$++++++++                                           ",
"                                       +++....$$$$++++++++&&&&++++.......$$$$++++++++                                           ",
"                                       +++....$$$$++++++++&&&&++++.......$$$$++++++++                                           ",
"                                       +++....$$$$++++++++&&&&++++.......$$$$++++++++                                           ",
"                                       +++....$$$$++++++++&&&&++++.......$$$$++++++++                                           ",
"                                       +++++++....&&&&++++++++++++.......$$$$++++%%%%                                           ",
"                                       +++++++....&&&&++++++++++++.......$$$$++++%%%%                                           ",
"                                       +++++++....&&&&++++++++++++.......$$$$++++%%%%                                           ",
"                                       +++++++....&&&&++++++++++++.......$$$$++++%%%%                                           ",
"                                       +++++++............&&&&&&&&.......$$$$++++%%%%                                           ",
"                                       +++++++............&&&&&&&&.......$$$$++++%%%%                                           ",
"                                       +++++++............&&&&&&&&.......$$$$++++%%%%                                           ",
"                                       +++++++............&&&&&&&&.......$$$$++++%%%%                                           ",
"                                       ...++++++++++++............++++...$$$$++++++++                                           ",
"                                       ...++++++++++++............++++...$$$$++++++++                                           ",
"                                       ...++++++++++++............++++...$$$$++++++++                                           ",
"                                       ...++++++++++++............++++...$$$$++++++++                                           ",
"                                       +++........++++++++++++........&&&@@@@++++++++                                           ",
"                                       +++........++++++++++++........&&&@@@@++++++++                                           ",
"                                       +++........++++++++++++........&&&@@@@++++++++                                           ",
"                                       +++........++++++++++++........&&&@@@@++++++++                                           ",
"                                          ....@@@@................&&&&$$$++++++++++++                                           ",
"                                          ....@@@@................&&&&$$$++++++++++++                                           ",
"                                          ....@@@@................&&&&$$$++++++++++++                                           ",
"                                          ....@@@@................&&&&$$$++++++++++++                                           ",
"                                          ....@@@@$$$$&&&&&&&&&&&&&&&&$$$++++++++++++                                           ",
"                                          ....@@@@$$$$&&&&&&&&&&&&&&&&$$$++++++++++++                                           ",
"                                          ....@@@@$$$$&&&&&&&&&&&&&&&&$$$++++++++++++                                           ",
"                                          ....@@@@$$$$&&&&&&&&&&&&&&&&$$$++++++++++++                                           ",
"                         ####             ....@@@@@@@@&&&&&&&&&&&&&&&&@@@++++%%%%                                               ",
"                         ####             ....@@@@@@@@&&&&&&&&&&&&&&&&@@@++++%%%%                                               ",
"                         ####             ....@@@@@@@@&&&&&&&&&&&&&&&&@@@++++%%%%                                               ",
"                         ####             ....@@@@@@@@&&&&&&&&&&&&&&&&@@@++++%%%%                                               ",
"                 ####    ####  ####       ++++....@@@@$$$$&&&&&&&&$$$$@@@++++%%%%                  ####                         ",
"                 ####    ####  ####       ++++....@@@@$$$$&&&&&&&&$$$$@@@++++%%%%                  ####                         ",
"                 ####    ####  ####       ++++....@@@@$$$$&&&&&&&&$$$$@@@++++%%%%                  ####                         ",
"                 ####    ####  ####       ++++....@@@@$$$$&&&&&&&&$$$$@@@++++%%%%                  ####                         ",
"                 ####    ####  ####           ....@@@@@@@@$$$$$$$$@@@@@@@++++++++....        ##    ####    ####                 ",
"                 ####    ####  ####           ....@@@@@@@@$$$$$$$$@@@@@@@++++++++....        ##    ####    ####                 ",
"                 ####    ####  ####           ....@@@@@@@@$$$$$$$$@@@@@@@++++++++....        ##    ####    ####                 ",
"                 ####    ####  ####           ....@@@@@@@@$$$$$$$$@@@@@@@++++++++....        ##    ####    ####                 ",
"                                              ++++....@@@@@@@@@@@@@@@@+++++++    ....                                           ",
"                                              ++++....@@@@@@@@@@@@@@@@+++++++    ....                                           ",
"                                              ++++....@@@@@@@@@@@@@@@@+++++++    ....                                           ",
"                                              ++++....@@@@@@@@@@@@@@@@+++++++    ....                                           ",
"                                                  ....@@@@@@@@@@@@@@@@+++                                                       ",
"                                                  ....@@@@@@@@@@@@@@@@+++                                                       ",
"                                                  ....@@@@@@@@@@@@@@@@+++                                                       ",
"                                                  ....@@@@@@@@@@@@@@@@+++                                                       ",
"                                                  ++++....@@@@@@@@+++++++                                                       ",
"                                                  ++++....@@@@@@@@+++++++                                                       ",
"                                                  ++++....@@@@@@@@+++++++                                                       ",
"                                                  ++++....@@@@@@@@+++++++                                                       ",
"                                                      ++++++++++++++++                                                          ",
"                                                      ++++++++++++++++                                                          ",
"                                                      ++++++++++++++++                                                          ",
"                                                      ++++++++++++++++                                                          ",
"                                                                                                                                ",
"                                                                                                                                ",
"                                                                                                                                ",
"                                                                                                                                "};
