/* XPM */
static char * portal4_xpm[] = {
"128 128 8 1",
" 	c #8B9150",
".	c #A57EBC",
"+	c #B78FD0",
"@	c #5E4D7D",
"#	c #7A5C93",
"$	c #557D55",
"%	c #3A3358",
"&	c #1E1B41",
"                                                                                                                                ",
"                                                                                                                                ",
"                                                                                                                                ",
"                                                                                                                                ",
"                                                      ....++++............                                                      ",
"                                                      ....++++............                                                      ",
"                                                      ....++++............                                                      ",
"                                                      ....++++............                                                      ",
"                                                      ++++........@@@@####...                                                   ",
"                                                      ++++........@@@@####...                                                   ",
"                                                      ++++........@@@@####...                                                   ",
"                                                      ++++........@@@@####...                                                   ",
"                                                  ............@@@@@@@@@@@@###                                                   ",
"                                                  ............@@@@@@@@@@@@###                                                   ",
"                                                  ............@@@@@@@@@@@@###                                                   ",
"                                                  ............@@@@@@@@@@@@###                                                   ",
"                         $$$$      ++++           ++++....@@@@%%%%%%%%@@@@@@@....                  $$$$                         ",
"                         $$$$      ++++           ++++....@@@@%%%%%%%%@@@@@@@....                  $$$$                         ",
"                         $$$$      ++++           ++++....@@@@%%%%%%%%@@@@@@@....                  $$$$                         ",
"                         $$$$      ++++           ++++....@@@@%%%%%%%%@@@@@@@....                  $$$$                         ",
"                 $$$$    $$$$                 ....++++....%%%%&&&&&&&&%%%%@@@####            $$    $$$$    $$$$                 ",
"                 $$$$    $$$$                 ....++++....%%%%&&&&&&&&%%%%@@@####            $$    $$$$    $$$$                 ",
"                 $$$$    $$$$                 ....++++....%%%%&&&&&&&&%%%%@@@####            $$    $$$$    $$$$                 ",
"                 $$$$    $$$$                 ....++++....%%%%&&&&&&&&%%%%@@@####            $$    $$$$    $$$$                 ",
"                 $$$$    $$$$  $$$$           ++++++++....%%%%&&&&&&&&%%%%@@@####....        $$    $$$$    $$$$                 ",
"                 $$$$    $$$$  $$$$           ++++++++....%%%%&&&&&&&&%%%%@@@####....        $$    $$$$    $$$$                 ",
"                 $$$$    $$$$  $$$$           ++++++++....%%%%&&&&&&&&%%%%@@@####....        $$    $$$$    $$$$                 ",
"                 $$$$    $$$$  $$$$           ++++++++....%%%%&&&&&&&&%%%%@@@####....        $$    $$$$    $$$$                 ",
"                                              ++++....@@@@&&&&&&&&&&&&&&&&%%%@@@@....                                           ",
"                                              ++++....@@@@&&&&&&&&&&&&&&&&%%%@@@@....                                           ",
"                                              ++++....@@@@&&&&&&&&&&&&&&&&%%%@@@@....                                           ",
"                                              ++++....@@@@&&&&&&&&&&&&&&&&%%%@@@@....                                           ",
"                                           ...++++....%%%%&&&&&&&&&&&&&&&&%%%@@@@####                                           ",
"                                           ...++++....%%%%&&&&&&&&&&&&&&&&%%%@@@@####                                           ",
"                                           ...++++....%%%%&&&&&&&&&&&&&&&&%%%@@@@####                                           ",
"                                           ...++++....%%%%&&&&&&&&&&&&&&&&%%%@@@@####                                           ",
"                                           ...++++....%%%%&&&&&&&&&&&&&&&&%%%@@@@####                                           ",
"                                           ...++++....%%%%&&&&&&&&&&&&&&&&%%%@@@@####                                           ",
"                                           ...++++....%%%%&&&&&&&&&&&&&&&&%%%@@@@####                                           ",
"                                           ...++++....%%%%&&&&&&&&&&&&&&&&%%%@@@@####                                           ",
"                                           +++++++....&&&&&&&&&&&&&&&&&&&&&&&%%%%####....                                       ",
"                                           +++++++....&&&&&&&&&&&&&&&&&&&&&&&%%%%####....                                       ",
"                                           +++++++....&&&&&&&&&&&&&&&&&&&&&&&%%%%####....                                       ",
"                                           +++++++....&&&&&&&&&&&&&&&&&&&&&&&%%%%####....                                       ",
"                                           +++++++....&&&&&&&&&&&&&&&&&&&&&&&%%%%@@@@....                                       ",
"                                           +++++++....&&&&&&&&&&&&&&&&&&&&&&&%%%%@@@@....                                       ",
"                                           +++++++....&&&&&&&&&&&&&&&&&&&&&&&%%%%@@@@....                                       ",
"                                           +++++++....&&&&&&&&&&&&&&&&&&&&&&&%%%%@@@@....                                       ",
"                                           +++++++....&&&&&&&&&&&&&&&&&&&&&&&%%%%@@@@####                                       ",
"                                           +++++++....&&&&&&&&&&&&&&&&&&&&&&&%%%%@@@@####                                       ",
"                                           +++++++....&&&&&&&&&&&&&&&&&&&&&&&%%%%@@@@####                                       ",
"                                           +++++++....&&&&&&&&&&&&&&&&&&&&&&&%%%%@@@@####                                       ",
"                                           +++++++....&&&&&&&&&&&&&&&&###################                                       ",
"                                           +++++++....&&&&&&&&&&&&&&&&###################                                       ",
"                                           +++++++....&&&&&&&&&&&&&&&&###################                                       ",
"                                           +++++++....&&&&&&&&&&&&&&&&###################                                       ",
"                                           ...++++....&&&&&&&&############...........####                                       ",
"                                           ...++++....&&&&&&&&############...........####                                       ",
"                                           ...++++....&&&&&&&&############...........####                                       ",
"                                           ...++++....&&&&&&&&############...........####                                       ",
"                                           ...++++........########.......................                                       ",
"                                           ...++++........########.......................                                       ",
"                                           ...++++........########.......................                                       ",
"                                           ...++++........########.......................                                       ",
"                                           ###....++++....###################............++++                                   ",
"                                           ###....++++....###################............++++                                   ",
"                                           ###....++++....###################............++++                                   ",
"                                           ###....++++....###################............++++                                   ",
"                                           ###....++++....####&&&&....&&&&#######........                                       ",
"                                           ###....++++....####&&&&....&&&&#######........                                       ",
"                                           ###....++++....####&&&&....&&&&#######........                                       ",
"                                           ###....++++....####&&&&....&&&&#######........                                       ",
"                                           ###@@@@....++++....####....&&&&&&&####........                                       ",
"                                           ###@@@@....++++....####....&&&&&&&####........                                       ",
"                                           ###@@@@....++++....####....&&&&&&&####........                                       ",
"                                           ###@@@@....++++....####....&&&&&&&####........                                       ",
"                                           ###@@@@%%%%............&&&&&&&&&&&####........                                       ",
"                                           ###@@@@%%%%............&&&&&&&&&&&####........                                       ",
"                                           ###@@@@%%%%............&&&&&&&&&&&####........                                       ",
"                                           ###@@@@%%%%............&&&&&&&&&&&####........                                       ",
"                                           ###@@@@%%%%&&&&&&&&&&&&&&&&&&&&&&&####........                                       ",
"                                           ###@@@@%%%%&&&&&&&&&&&&&&&&&&&&&&&####........                                       ",
"                                           ###@@@@%%%%&&&&&&&&&&&&&&&&&&&&&&&####........                                       ",
"                                           ###@@@@%%%%&&&&&&&&&&&&&&&&&&&&&&&####........                                       ",
"                                           #######@@@@%%%%&&&&&&&&&&&&&&&&%%%####........                                       ",
"                                           #######@@@@%%%%&&&&&&&&&&&&&&&&%%%####........                                       ",
"                                           #######@@@@%%%%&&&&&&&&&&&&&&&&%%%####........                                       ",
"                                           #######@@@@%%%%&&&&&&&&&&&&&&&&%%%####........                                       ",
"                                              ####@@@@%%%%&&&&&&&&&&&&&&&&%%%####....                                           ",
"                                              ####@@@@%%%%&&&&&&&&&&&&&&&&%%%####....                                           ",
"                                              ####@@@@%%%%&&&&&&&&&&&&&&&&%%%####....                                           ",
"                                              ####@@@@%%%%&&&&&&&&&&&&&&&&%%%####....                                           ",
"                                              ####@@@@%%%%&&&&&&&&&&&&&&&&%%%####....                                           ",
"                                              ####@@@@%%%%&&&&&&&&&&&&&&&&%%%####....                                           ",
"                                              ####@@@@%%%%&&&&&&&&&&&&&&&&%%%####....                                           ",
"                                              ####@@@@%%%%&&&&&&&&&&&&&&&&%%%####....                                           ",
"                         $$$$                 ####@@@@@@@@&&&&&&&&&&&&&&&&###........                                           ",
"                         $$$$                 ####@@@@@@@@&&&&&&&&&&&&&&&&###........                                           ",
"                         $$$$                 ####@@@@@@@@&&&&&&&&&&&&&&&&###........                                           ",
"                         $$$$                 ####@@@@@@@@&&&&&&&&&&&&&&&&###........                                           ",
"                 $$$$    $$$$  $$$$           ########@@@@%%%%&&&&&&&&%%%%###........              $$$$                         ",
"                 $$$$    $$$$  $$$$           ########@@@@%%%%&&&&&&&&%%%%###........              $$$$                         ",
"                 $$$$    $$$$  $$$$           ########@@@@%%%%&&&&&&&&%%%%###........              $$$$                         ",
"                 $$$$    $$$$  $$$$           ########@@@@%%%%&&&&&&&&%%%%###........              $$$$                         ",
"                 $$$$    $$$$  $$$$               ####@@@@@@@@%%%%%%%%@@@@###....            $$    $$$$    $$$$                 ",
"                 $$$$    $$$$  $$$$               ####@@@@@@@@%%%%%%%%@@@@###....            $$    $$$$    $$$$                 ",
"                 $$$$    $$$$  $$$$               ####@@@@@@@@%%%%%%%%@@@@###....            $$    $$$$    $$$$                 ",
"                 $$$$    $$$$  $$$$               ####@@@@@@@@%%%%%%%%@@@@###....            $$    $$$$    $$$$                 ",
"                                       #######    ########@@@@@@@@@@@@####.......            ........                           ",
"                                       #######    ########@@@@@@@@@@@@####.......            ........                           ",
"                                       #######    ########@@@@@@@@@@@@####.......            ........                           ",
"                                       #######    ########@@@@@@@@@@@@####.......            ........                           ",
"                                       #######        ####@@@@############...                    ....                           ",
"                                       #######        ####@@@@############...                    ....                           ",
"                                       #######        ####@@@@############...                    ....                           ",
"                                       #######        ####@@@@############...                    ....                           ",
"                                                      ########...............                                                   ",
"                                                      ########...............                                                   ",
"                                                      ########...............                                                   ",
"                                                      ########...............                                                   ",
"                                                          ################                                                      ",
"                                                          ################                                                      ",
"                                                          ################                                                      ",
"                                                          ################                                                      ",
"                                                                                                                                ",
"                                                                                                                                ",
"                                                                                                                                ",
"                                                                                                                                "};
