/* XPM */
static char * sakura_tree_xpm[] = {
"128 128 8 1",
" 	c None",
".	c #353540",
"+	c #D9A6A6",
"@	c #EDE4DA",
"#	c #BC87A5",
"$	c #604B3D",
"%	c #735B42",
"&	c #557D55",
"                                     ......................................................                                     ",
"                                     ......................................................                                     ",
"                                     ......................................................                                     ",
"                                     ......................................................                                     ",
"                                     ......................................................                                     ",
"                                ...........++++++++++++++++++++++++++++++++@@@@@@@@@@...........                                ",
"                                ...........++++++++++++++++++++++++++++++++@@@@@@@@@@...........                                ",
"                                ...........++++++++++++++++++++++++++++++++@@@@@@@@@@...........                                ",
"                                ...........++++++++++++++++++++++++++++++++@@@@@@@@@@...........                                ",
"                                ...........++++++++++++++++++++++++++++++++@@@@@@@@@@...........                                ",
"                                .....+++++++++++++++++++++++++++++++++++++++++++@@@@@@@@@@@.....                                ",
"                                .....+++++++++++++++++++++++++++++++++++++++++++@@@@@@@@@@@.....                                ",
"                                .....+++++++++++++++++++++++++++++++++++++++++++@@@@@@@@@@@.....                                ",
"                                .....+++++++++++++++++++++++++++++++++++++++++++@@@@@@@@@@@.....                                ",
"                                .....+++++++++++++++++++++++++++++++++++++++++++@@@@@@@@@@@.....                                ",
"                                .....++++++++++++++++++++++++++++++++++++++++++++++++++++++.....                                ",
"                                .....++++++++++++++++++++++++++++++++++++++++++++++++++++++.....                                ",
"                                .....++++++++++++++++++++++++++++++++++++++++++++++++++++++.....                                ",
"                                .....++++++++++++++++++++++++++++++++++++++++++++++++++++++.....                                ",
"                                .....++++++++++++++++++++++++++++++++++++++++++++++++++++++.....                                ",
"                                .....++++++++++++++++++++++++++++++++++++++++++++++++++++++.....                                ",
"                                .....++++++++++++++++++++++++++++++++++++++++++++++++++++++.....                                ",
"                                .....++++++++++++++++++++++++++++++++++++++++++++++++++++++.....                                ",
"                                .....++++++++++++++++++++++++++++++++++++++++++++++++++++++.....                                ",
"                                .....++++++++++++++++++++++++++++++++++++++++++++++++++++++.....                                ",
"                                .....++++++++++++++++++++++++++++++++++++++++++++++++++++++.....................                ",
"                                .....++++++++++++++++++++++++++++++++++++++++++++++++++++++.....................                ",
"                                .....++++++++++++++++++++++++++++++++++++++++++++++++++++++.....................                ",
"                                .....++++++++++++++++++++++++++++++++++++++++++++++++++++++.....................                ",
"                                .....++++++++++++++++++++++++++++++++++++++++++++++++++++++.....................                ",
"                .....................+++++++++++++++++++++++++++++++++++++++++++++++++++++++++++@@@@@@@@@@@..........           ",
"                .....................+++++++++++++++++++++++++++++++++++++++++++++++++++++++++++@@@@@@@@@@@..........           ",
"                .....................+++++++++++++++++++++++++++++++++++++++++++++++++++++++++++@@@@@@@@@@@..........           ",
"                .....................+++++++++++++++++++++++++++++++++++++++++++++++++++++++++++@@@@@@@@@@@..........           ",
"                .....................+++++++++++++++++++++++++++++++++++++++++++++++++++++++++++@@@@@@@@@@@..........           ",
"           ..........+++++++++++@@@@@++++++++++++++++++++++++++++++++++++++++++++++++++++++++++++++++@@@@@@@@@@@.....           ",
"           ..........+++++++++++@@@@@++++++++++++++++++++++++++++++++++++++++++++++++++++++++++++++++@@@@@@@@@@@.....           ",
"           ..........+++++++++++@@@@@++++++++++++++++++++++++++++++++++++++++++++++++++++++++++++++++@@@@@@@@@@@.....           ",
"           ..........+++++++++++@@@@@++++++++++++++++++++++++++++++++++++++++++++++++++++++++++++++++@@@@@@@@@@@.....           ",
"           ..........+++++++++++@@@@@++++++++++++++++++++++++++++++++++++++++++++++++++++++++++++++++@@@@@@@@@@@.....           ",
"           .....++++++++++++++++++++++++++++++++++++++++++++++++++++++++++++++++++++++++++++++++++++++++++++++++.....           ",
"           .....++++++++++++++++++++++++++++++++++++++++++++++++++++++++++++++++++++++++++++++++++++++++++++++++.....           ",
"           .....++++++++++++++++++++++++++++++++++++++++++++++++++++++++++++++++++++++++++++++++++++++++++++++++.....           ",
"           .....++++++++++++++++++++++++++++++++++++++++++++++++++++++++++++++++++++++++++++++++++++++++++++++++.....           ",
"           .....++++++++++++++++++++++++++++++++++++++++++++++++++++++++++++++++++++++++++++++++++++++++++++++++.....           ",
"           .....+++++++++++++++++++++######++++++++++++++++++++++++++++++++++++++++++######++++++++++++++++#####.....           ",
"           .....+++++++++++++++++++++######++++++++++++++++++++++++++++++++++++++++++######++++++++++++++++#####.....           ",
"           .....+++++++++++++++++++++######++++++++++++++++++++++++++++++++++++++++++######++++++++++++++++#####.....           ",
"           .....+++++++++++++++++++++######++++++++++++++++++++++++++++++++++++++++++######++++++++++++++++#####.....           ",
"           .....+++++++++++++++++++++######++++++++++++++++++++++++++++++++++++++++++######++++++++++++++++#####.....           ",
"           .....#####++++++++++++++++###########################################################################.....           ",
"           .....#####++++++++++++++++###########################################################################.....           ",
"           .....#####++++++++++++++++###########################################################################.....           ",
"           .....#####++++++++++++++++###########################################################################.....           ",
"           .....###########################################################################################..........           ",
"           .....###########################################################################################..........           ",
"           .....###########################################################################################..........           ",
"           .....###########################################################################################..........           ",
"           .....###########################################################################################..........           ",
"           ..........######################################################################$$$$$$$$$$$$$$$$.....                ",
"           ..........######################################################################$$$$$$$$$$$$$$$$.....                ",
"           ..........######################################################################$$$$$$$$$$$$$$$$.....                ",
"           ..........######################################################################$$$$$$$$$$$$$$$$.....                ",
"           ..........######################################################################$$$$$$$$$$$$$$$$.....                ",
"                .....$$$$$$$$$$$$$$$$######################################################%%%%%%%%%%...........                ",
"                .....$$$$$$$$$$$$$$$$######################################################%%%%%%%%%%...........                ",
"                .....$$$$$$$$$$$$$$$$######################################################%%%%%%%%%%...........                ",
"                .....$$$$$$$$$$$$$$$$######################################################%%%%%%%%%%...........                ",
"                .....$$$$$$$$$$$$$$$$######################################################%%%%%%%%%%...........                ",
"                ...........%%%%%%%%%%######################################################................                     ",
"                ...........%%%%%%%%%%######################################################................                     ",
"                ...........%%%%%%%%%%######################################################................                     ",
"                ...........%%%%%%%%%%######################################################................                     ",
"                ...........%%%%%%%%%%######################################################................                     ",
"                     ................######################################################.....                                ",
"                     ................######################################################.....                                ",
"                     ................######################################################.....                                ",
"                     ................######################################################.....                                ",
"                     ................######################################################.....                                ",
"                                .....######################################################.....                                ",
"                                .....######################################################.....                                ",
"                                .....######################################################.....                                ",
"                                .....######################################################.....                                ",
"                                .....######################################################.....                                ",
"                                ...........##########################################...........                                ",
"                                ...........##########################################...........                                ",
"                                ...........##########################################...........                                ",
"                                ...........##########################################...........                                ",
"                                ...........##########################################...........                                ",
"                                &&&&&................$$$$$$$$$$$$$$$$$$$$$$................&&&&&                                ",
"                                &&&&&................$$$$$$$$$$$$$$$$$$$$$$................&&&&&                                ",
"                                &&&&&................$$$$$$$$$$$$$$$$$$$$$$................&&&&&                                ",
"                                &&&&&................$$$$$$$$$$$$$$$$$$$$$$................&&&&&                                ",
"                                &&&&&................$$$$$$$$$$$$$$$$$$$$$$................&&&&&                                ",
"                                &&&&&&&&&&&..........%%%%%%%%%%%%%%%%%%%%%%..........&&&&&&&&&&&                                ",
"                                &&&&&&&&&&&..........%%%%%%%%%%%%%%%%%%%%%%..........&&&&&&&&&&&                                ",
"                                &&&&&&&&&&&..........%%%%%%%%%%%%%%%%%%%%%%..........&&&&&&&&&&&                                ",
"                                &&&&&&&&&&&..........%%%%%%%%%%%%%%%%%%%%%%..........&&&&&&&&&&&                                ",
"                                &&&&&&&&&&&..........%%%%%%%%%%%%%%%%%%%%%%..........&&&&&&&&&&&                                ",
"                                &&&&&&&&&&&.....%%%%%%%%%%%%%%%%%%%%%%%%%%%%%%%%.....&&&&&&&&&&&                                ",
"                                &&&&&&&&&&&.....%%%%%%%%%%%%%%%%%%%%%%%%%%%%%%%%.....&&&&&&&&&&&                                ",
"                                &&&&&&&&&&&.....%%%%%%%%%%%%%%%%%%%%%%%%%%%%%%%%.....&&&&&&&&&&&                                ",
"                                &&&&&&&&&&&.....%%%%%%%%%%%%%%%%%%%%%%%%%%%%%%%%.....&&&&&&&&&&&                                ",
"                                &&&&&&&&&&&.....%%%%%%%%%%%%%%%%%%%%%%%%%%%%%%%%.....&&&&&&&&&&&                                ",
"                                &&&&&&&&&&&.....%%%%%%%%%%%%%%%%%%%%%%%%%%%%%%%%.....&&&&&&&&&&&                                ",
"                                &&&&&&&&&&&.....%%%%%%%%%%%%%%%%%%%%%%%%%%%%%%%%.....&&&&&&&&&&&                                ",
"                                &&&&&&&&&&&.....%%%%%%%%%%%%%%%%%%%%%%%%%%%%%%%%.....&&&&&&&&&&&                                ",
"                                &&&&&&&&&&&.....%%%%%%%%%%%%%%%%%%%%%%%%%%%%%%%%.....&&&&&&&&&&&                                ",
"                                &&&&&&&&&&&.....%%%%%%%%%%%%%%%%%%%%%%%%%%%%%%%%.....&&&&&&&&&&&                                ",
"                                &&&&&&&&&&&..........%%%%%%%%%%%%%%%%%%%%%%..........&&&&&&&&&&&                                ",
"                                &&&&&&&&&&&..........%%%%%%%%%%%%%%%%%%%%%%..........&&&&&&&&&&&                                ",
"                                &&&&&&&&&&&..........%%%%%%%%%%%%%%%%%%%%%%..........&&&&&&&&&&&                                ",
"                                &&&&&&&&&&&..........%%%%%%%%%%%%%%%%%%%%%%..........&&&&&&&&&&&                                ",
"                                &&&&&&&&&&&..........%%%%%%%%%%%%%%%%%%%%%%..........&&&&&&&&&&&                                ",
"                                &&&&&&&&&&&&&&&&................................&&&&&&&&&&&&&&&&                                ",
"                                &&&&&&&&&&&&&&&&................................&&&&&&&&&&&&&&&&                                ",
"                                &&&&&&&&&&&&&&&&................................&&&&&&&&&&&&&&&&                                ",
"                                &&&&&&&&&&&&&&&&................................&&&&&&&&&&&&&&&&                                ",
"                                &&&&&&&&&&&&&&&&&&&&&&&&&&&&&&&&&&&&&&&&&&&&&&&&&&&&&&&&&&&&&&&&                                ",
"                                &&&&&&&&&&&&&&&&&&&&&&&&&&&&&&&&&&&&&&&&&&&&&&&&&&&&&&&&&&&&&&&&                                ",
"                                &&&&&&&&&&&&&&&&&&&&&&&&&&&&&&&&&&&&&&&&&&&&&&&&&&&&&&&&&&&&&&&&                                ",
"                                &&&&&&&&&&&&&&&&&&&&&&&&&&&&&&&&&&&&&&&&&&&&&&&&&&&&&&&&&&&&&&&&                                ",
"                                &&&&&&&&&&&&&&&&&&&&&&&&&&&&&&&&&&&&&&&&&&&&&&&&&&&&&&&&&&&&&&&&                                ",
"                                     &&&&&&&&&&&&&&&&&&&&&&&&&&&&&&&&&&&&&&&&&&&&&&&&&&&&&&                                     ",
"                                     &&&&&&&&&&&&&&&&&&&&&&&&&&&&&&&&&&&&&&&&&&&&&&&&&&&&&&                                     ",
"                                     &&&&&&&&&&&&&&&&&&&&&&&&&&&&&&&&&&&&&&&&&&&&&&&&&&&&&&                                     ",
"                                     &&&&&&&&&&&&&&&&&&&&&&&&&&&&&&&&&&&&&&&&&&&&&&&&&&&&&&                                     ",
"                                     &&&&&&&&&&&&&&&&&&&&&&&&&&&&&&&&&&&&&&&&&&&&&&&&&&&&&&                                     "};
