/* XPM */
static char * wall_top_floor_xpm[] = {
"128 128 5 1",
" 	c #8B9150",
".	c #557D55",
"+	c #353540",
"@	c #604B3D",
"#	c #735B42",
"                                                                                                                                ",
"                                                                                                                                ",
"                                                                                                                                ",
"                                                                                                                                ",
"                                                                                                                                ",
"                                                                                                                                ",
"                                                                                                                                ",
"                                                                                                                                ",
"                                                                                                                                ",
"                                                                                                                                ",
"                                                                                                                                ",
"                                                                                                                                ",
"                                                                                                                                ",
"                                                                                                                                ",
"                                                                                                                                ",
"                                                                                                                                ",
"                                                                                                                                ",
"                                                                                                                                ",
"                                                                                                                                ",
"                                                                                                                                ",
"                                                                                                                                ",
"                                                                                                                                ",
"                                                                                                                                ",
"                                                                                                                                ",
"                                                                                                                                ",
"                                                                                                                                ",
"                                                                                                                                ",
"                                                                                                                                ",
"                                                                                                                                ",
"                                                                                                                                ",
"                                                                                                                                ",
"                                                                                                                                ",
"                                                                                                                                ",
"                                                                                                                                ",
"                                                                                                                                ",
"                                                                                                                                ",
"                                                                                                                                ",
"                                                                                                                                ",
"........................................                ................................................                ........",
"........................................                ................................................                ........",
"........................................                ................................................                ........",
"........................................                ................................................                ........",
"........................................                ................................................                ........",
"........................................                ................................................                ........",
"........................................                ................................................                ........",
"........................................                ................................................                ........",
"++++++++++++++++++++++++++++++++........                ........++++++++++++++++++++++++++++++++........                ........",
"++++++++++++++++++++++++++++++++........                ........++++++++++++++++++++++++++++++++........                ........",
"++++++++++++++++++++++++++++++++........                ........++++++++++++++++++++++++++++++++........                ........",
"++++++++++++++++++++++++++++++++........                ........++++++++++++++++++++++++++++++++........                ........",
"++++++++++++++++++++++++++++++++........                ........++++++++++++++++++++++++++++++++........                ........",
"++++++++++++++++++++++++++++++++........                ........++++++++++++++++++++++++++++++++........                ........",
"++++++++@@@@@@@@@@@@@@@@++++++++................................++++++++@@@@@@@@@@@@@@@@++++++++................................",
"++++++++@@@@@@@@@@@@@@@@++++++++................................++++++++@@@@@@@@@@@@@@@@++++++++................................",
"++++++++@@@@@@@@@@@@@@@@++++++++................................++++++++@@@@@@@@@@@@@@@@++++++++................................",
"++++++++@@@@@@@@@@@@@@@@++++++++................................++++++++@@@@@@@@@@@@@@@@++++++++................................",
"++++++++@@@@@@@@@@@@@@@@++++++++................................++++++++@@@@@@@@@@@@@@@@++++++++................................",
"++++++++@@@@@@@@@@@@@@@@++++++++................................++++++++@@@@@@@@@@@@@@@@++++++++................................",
"++++++++@@@@@@@@@@@@@@@@++++++++................................++++++++@@@@@@@@@@@@@@@@++++++++................................",
"++++++++@@@@@@@@@@@@@@@@++++++++................................++++++++@@@@@@@@@@@@@@@@++++++++................................",
"++++++++################++++++++++++++++++++++++++++++++++++++++++++++++################++++++++++++++++++++++++++++++++++++++++",
"++++++++################++++++++++++++++++++++++++++++++++++++++++++++++################++++++++++++++++++++++++++++++++++++++++",
"++++++++################++++++++++++++++++++++++++++++++++++++++++++++++################++++++++++++++++++++++++++++++++++++++++",
"++++++++################++++++++++++++++++++++++++++++++++++++++++++++++################++++++++++++++++++++++++++++++++++++++++",
"++++++++################++++++++++++++++++++++++++++++++++++++++++++++++################++++++++++++++++++++++++++++++++++++++++",
"++++++++################++++++++++++++++++++++++++++++++++++++++++++++++################++++++++++++++++++++++++++++++++++++++++",
"++++++++################++++++++++++++++++++++++++++++++++++++++++++++++################++++++++++++++++++++++++++++++++++++++++",
"++++++++################++++++++++++++++++++++++++++++++++++++++++++++++################++++++++++++++++++++++++++++++++++++++++",
"@@@@@@@@################@@@@@@@@@@@@@@@@@@@@@@@@@@@@@@@@@@@@@@@@@@@@@@@@################@@@@@@@@@@@@@@@@@@@@@@@@@@@@@@@@@@@@@@@@",
"@@@@@@@@################@@@@@@@@@@@@@@@@@@@@@@@@@@@@@@@@@@@@@@@@@@@@@@@@################@@@@@@@@@@@@@@@@@@@@@@@@@@@@@@@@@@@@@@@@",
"@@@@@@@@################@@@@@@@@@@@@@@@@@@@@@@@@@@@@@@@@@@@@@@@@@@@@@@@@################@@@@@@@@@@@@@@@@@@@@@@@@@@@@@@@@@@@@@@@@",
"@@@@@@@@################@@@@@@@@@@@@@@@@@@@@@@@@@@@@@@@@@@@@@@@@@@@@@@@@################@@@@@@@@@@@@@@@@@@@@@@@@@@@@@@@@@@@@@@@@",
"@@@@@@@@################@@@@@@@@@@@@@@@@@@@@@@@@@@@@@@@@@@@@@@@@@@@@@@@@################@@@@@@@@@@@@@@@@@@@@@@@@@@@@@@@@@@@@@@@@",
"@@@@@@@@################@@@@@@@@@@@@@@@@@@@@@@@@@@@@@@@@@@@@@@@@@@@@@@@@################@@@@@@@@@@@@@@@@@@@@@@@@@@@@@@@@@@@@@@@@",
"@@@@@@@@################@@@@@@@@@@@@@@@@@@@@@@@@@@@@@@@@@@@@@@@@@@@@@@@@################@@@@@@@@@@@@@@@@@@@@@@@@@@@@@@@@@@@@@@@@",
"@@@@@@@@################@@@@@@@@@@@@@@@@@@@@@@@@@@@@@@@@@@@@@@@@@@@@@@@@################@@@@@@@@@@@@@@@@@@@@@@@@@@@@@@@@@@@@@@@@",
"@@@@@@@@################@@@@@@@@################################@@@@@@@@################@@@@@@@@################################",
"@@@@@@@@################@@@@@@@@################################@@@@@@@@################@@@@@@@@################################",
"@@@@@@@@################@@@@@@@@################################@@@@@@@@################@@@@@@@@################################",
"@@@@@@@@################@@@@@@@@################################@@@@@@@@################@@@@@@@@################################",
"@@@@@@@@################@@@@@@@@################################@@@@@@@@################@@@@@@@@################################",
"@@@@@@@@################@@@@@@@@################################@@@@@@@@################@@@@@@@@################################",
"++++++++++++++++++++++++++++++++################################++++++++++++++++++++++++++++++++################################",
"++++++++++++++++++++++++++++++++################################++++++++++++++++++++++++++++++++################################",
"++++++++++++++++++++++++++++++++################################++++++++++++++++++++++++++++++++################################",
"++++++++++++++++++++++++++++++++################################++++++++++++++++++++++++++++++++################################",
"++++++++++++++++++++++++++++++++################################++++++++++++++++++++++++++++++++################################",
"++++++++++++++++++++++++++++++++################################++++++++++++++++++++++++++++++++################################",
"++++++++++++++++++++++++++++++++################################++++++++++++++++++++++++++++++++################################",
"++++++++++++++++++++++++++++++++################################++++++++++++++++++++++++++++++++################################",
"++++++++................++++++++################################++++++++................++++++++################################",
"++++++++................++++++++################################++++++++................++++++++################################",
"++++++++................++++++++################################++++++++................++++++++################################",
"++++++++................++++++++################################++++++++................++++++++################################",
"++++++++................++++++++################################++++++++................++++++++################################",
"++++++++................++++++++################################++++++++................++++++++################################",
"++++++++................++++++++################################++++++++................++++++++################################",
"++++++++................++++++++################################++++++++................++++++++################################",
"++++++++................++++++++++++++++++++++++++++++++++++++++++++++++................++++++++++++++++++++++++++++++++++++++++",
"++++++++................++++++++++++++++++++++++++++++++++++++++++++++++................++++++++++++++++++++++++++++++++++++++++",
"++++++++................++++++++++++++++++++++++++++++++++++++++++++++++................++++++++++++++++++++++++++++++++++++++++",
"++++++++................++++++++++++++++++++++++++++++++++++++++++++++++................++++++++++++++++++++++++++++++++++++++++",
"++++++++................++++++++++++++++++++++++++++++++++++++++++++++++................++++++++++++++++++++++++++++++++++++++++",
"++++++++................++++++++++++++++++++++++++++++++++++++++++++++++................++++++++++++++++++++++++++++++++++++++++",
"++++++++................++++++++++++++++++++++++++++++++++++++++++++++++................++++++++++++++++++++++++++++++++++++++++",
"++++++++................++++++++++++++++++++++++++++++++++++++++++++++++................++++++++++++++++++++++++++++++++++++++++",
"................................................................................................................................",
"................................................................................................................................",
"................................................................................................................................",
"................................................................................................................................",
"................................................................................................................................",
"................................................................................................................................",
"........                ................................................                ........................................",
"........                ................................................                ........................................",
"........                ................................................                ........................................",
"........                ................................................                ........................................",
"........                ................................................                ........................................",
"........                ................................................                ........................................",
"........                ................................................                ........................................",
"........                ................................................                ........................................",
"                                                                                                                                ",
"                                                                                                                                ",
"                                                                                                                                ",
"                                                                                                                                ",
"                                                                                                                                ",
"                                                                                                                                ",
"                                                                                                                                ",
"                                                                                                                                "};
